<svg width="26" height="30" viewBox="0 0 26 30" fill="none" xmlns="http://www.w3.org/2000/svg">
<path d="M13.1379 30C14.8406 30 16.2197 28.6575 16.2197 27H10.0561C10.0561 28.6575 11.4352 30 13.1379 30ZM22.3832 21V13.5C22.3832 8.8875 19.8639 5.04 15.4492 4.02V3C15.4492 1.755 14.4168 0.75 13.1379 0.75C11.859 0.75 10.8266 1.755 10.8266 3V4.02C6.41192 5.04 3.89257 8.8875 3.89257 13.5V21L0.810791 24V25.5H25.465V24L22.3832 21ZM19.3014 22.5H6.97434V13.5C6.97434 9.7725 9.30878 6.75 13.1379 6.75C16.967 6.75 19.3014 9.7725 19.3014 13.5V22.5Z" fill="#2D2F31"/>
</svg>
