<svg width="17" height="17" viewBox="0 0 17 17" fill="none" xmlns="http://www.w3.org/2000/svg">
<path d="M2.12508 14.875C1.93722 14.875 1.75705 14.8004 1.62421 14.6675C1.49138 14.5347 1.41675 14.3545 1.41675 14.1667V2.83333C1.41675 2.64547 1.49138 2.4653 1.62421 2.33247C1.75705 2.19963 1.93722 2.125 2.12508 2.125H7.37666L8.79333 3.54167H14.1667C14.3546 3.54167 14.5348 3.61629 14.6676 3.74913C14.8005 3.88197 14.8751 4.06214 14.8751 4.25V6.375H2.83341V13.4555L4.25008 7.79167H15.9376L14.3013 14.3388C14.263 14.492 14.1745 14.6279 14.05 14.7251C13.9255 14.8222 13.7722 14.875 13.6142 14.875H2.12508Z" fill="#2D2F31"/>
</svg>
