<svg width="11" height="14" viewBox="0 0 11 14" fill="none" xmlns="http://www.w3.org/2000/svg">
<path d="M0.362926 14V0.181818H5.6527C6.65128 0.181818 7.48118 0.339251 8.1424 0.654119C8.80812 0.964488 9.30516 1.38956 9.63352 1.92933C9.96638 2.4691 10.1328 3.08085 10.1328 3.76456C10.1328 4.32682 10.0249 4.80812 9.80895 5.20845C9.59304 5.60428 9.30291 5.9259 8.93857 6.17329C8.57422 6.42069 8.16714 6.59837 7.71733 6.70632V6.84126C8.20762 6.86825 8.67768 7.01894 9.12749 7.29332C9.58179 7.56321 9.95289 7.94555 10.2408 8.44034C10.5286 8.93513 10.6726 9.53338 10.6726 10.2351C10.6726 10.9503 10.4994 11.5935 10.1531 12.1648C9.8067 12.7315 9.28492 13.1791 8.58771 13.5075C7.89051 13.8358 7.01338 14 5.95632 14H0.362926ZM2.86612 11.9084H5.55824C6.46686 11.9084 7.12133 11.7352 7.52166 11.3888C7.92649 11.038 8.12891 10.5882 8.12891 10.0394C8.12891 9.63009 8.0277 9.26125 7.82528 8.93288C7.62287 8.60002 7.33499 8.33913 6.96165 8.15021C6.5883 7.95679 6.14299 7.86009 5.62571 7.86009H2.86612V11.9084ZM2.86612 6.05859H5.34233C5.77415 6.05859 6.16323 5.97988 6.50959 5.82244C6.85594 5.66051 7.12808 5.43336 7.32599 5.14098C7.52841 4.8441 7.62962 4.49325 7.62962 4.08842C7.62962 3.55315 7.4407 3.11233 7.06286 2.76598C6.68951 2.41963 6.134 2.24645 5.39631 2.24645H2.86612V6.05859Z" fill="#2D2F31"/>
</svg>
