<svg width="15" height="15" viewBox="0 0 15 15" fill="none" xmlns="http://www.w3.org/2000/svg">
<path d="M14.625 6.01167H9.25751L11.4267 3.77917C9.26543 1.64167 5.76626 1.5625 3.60501 3.7C1.44376 5.84542 1.44376 9.305 3.60501 11.4504C5.76626 13.5958 9.26543 13.5958 11.4267 11.4504C12.5033 10.3896 13.0417 9.14667 13.0417 7.57917H14.625C14.625 9.14667 13.9283 11.1812 12.535 12.5588C9.75626 15.3138 5.24376 15.3138 2.46501 12.5588C-0.30582 9.81167 -0.32957 5.34667 2.44918 2.59958C5.22793 -0.1475 9.68501 -0.1475 12.4638 2.59958L14.625 0.375V6.01167ZM7.89585 4.33333V7.69792L10.6667 9.34458L10.0967 10.3025L6.70835 8.29167V4.33333H7.89585Z" fill="#2D2F31"/>
</svg>
