<svg width="33" height="33" viewBox="0 0 33 33" fill="none" xmlns="http://www.w3.org/2000/svg">
<path d="M24.75 16.5C24.75 13.255 22.88 10.4683 20.1667 9.11167V13.1633L24.6583 17.655C24.7133 17.2883 24.75 16.9033 24.75 16.5V16.5ZM29.3333 16.5C29.3333 18.2233 28.9667 19.8367 28.3433 21.34L31.1117 24.1083C32.3217 21.835 33 19.25 33 16.5C33 8.65333 27.5183 2.09 20.1667 0.421667V4.19833C25.465 5.775 29.3333 10.6883 29.3333 16.5ZM2.32833 0L0 2.32833L8.67167 11H0V22H7.33333L16.5 31.1667V18.8283L24.2917 26.62C23.0633 27.5733 21.6883 28.325 20.1667 28.7833V32.56C22.6967 31.9917 24.9883 30.8183 26.9317 29.2417L30.6717 33L33 30.6717L16.5 14.1717L2.32833 0ZM16.5 1.83333L12.6683 5.665L16.5 9.49667V1.83333Z" fill="white"/>
</svg>
