<svg width="38" height="36" viewBox="0 0 38 36" fill="none" xmlns="http://www.w3.org/2000/svg">
<ellipse cx="18.8006" cy="18" rx="18.4906" ry="18" fill="#2D2F31"/>
<path d="M18.8005 10C16.3001 10 14.273 11.6776 14.273 13.7469C14.273 15.8163 16.3001 17.4939 18.8005 17.4939C21.301 17.4939 23.3281 15.8163 23.3281 13.7469C23.3281 11.6776 21.301 10 18.8005 10Z" fill="white"/>
<path d="M21.4724 19.1609C19.7024 18.9271 17.8987 18.9271 16.1287 19.1609L15.939 19.1859C13.4449 19.5153 11.6097 21.2957 11.6097 23.3859C11.6097 24.514 12.7148 25.4286 14.078 25.4286H23.5231C24.8863 25.4286 25.9914 24.514 25.9914 23.3859C25.9914 21.2957 24.1562 19.5153 21.6621 19.1859L21.4724 19.1609Z" fill="white"/>
</svg>
