<svg width="20" height="20" viewBox="0 0 20 20" fill="none" xmlns="http://www.w3.org/2000/svg">
<path d="M14.2938 12.5786H13.3847L13.0702 12.2642C14.1908 10.9663 14.8655 9.27959 14.8655 7.43282C14.8655 3.32762 11.5379 0 7.4327 0C3.32749 0 -0.00012207 3.32762 -0.00012207 7.43282C-0.00012207 11.538 3.32749 14.8656 7.4327 14.8656C9.27947 14.8656 10.9661 14.191 12.264 13.076L12.5785 13.3905V14.2939L18.296 20L19.9999 18.2962L14.2938 12.5786ZM7.4327 12.5786C4.59107 12.5786 2.2869 10.2744 2.2869 7.43282C2.2869 4.5912 4.59107 2.28702 7.4327 2.28702C10.2743 2.28702 12.5785 4.5912 12.5785 7.43282C12.5785 10.2744 10.2743 12.5786 7.4327 12.5786Z" fill="#818181" fill-opacity="0.66"/>
</svg>
