<svg width="14" height="13" viewBox="0 0 14 13" fill="none" xmlns="http://www.w3.org/2000/svg">
<path d="M7.33027 10.4686C7.1265 10.3484 6.8735 10.3484 6.66973 10.4686L3.61138 12.2728C3.34544 12.4297 3.02142 12.1905 3.0931 11.8901L3.89654 8.52383C3.95344 8.28542 3.87139 8.03527 3.68433 7.87688L1.01821 5.61931C0.78024 5.41781 0.904702 5.02918 1.21546 5.00341L4.74707 4.71054C4.98586 4.69074 5.19439 4.54118 5.28971 4.32135L6.67889 1.1176C6.80074 0.836588 7.19926 0.836588 7.32111 1.1176L8.71029 4.32135C8.80561 4.54118 9.01414 4.69074 9.25293 4.71054L12.7845 5.00341C13.0953 5.02918 13.2198 5.41781 12.9818 5.61931L10.3157 7.87688C10.1286 8.03527 10.0466 8.28542 10.1035 8.52383L10.9069 11.8901C10.9786 12.1905 10.6546 12.4297 10.3886 12.2728L7.33027 10.4686Z" fill="#FCA016" stroke="black" stroke-width="0.3"/>
</svg>
