<svg width="13" height="14" viewBox="0 0 13 14" fill="none" xmlns="http://www.w3.org/2000/svg">
<path d="M12.8479 4.05265C12.9451 4.14683 13 4.27641 13 4.41177V13.2951C13.0006 13.387 12.9826 13.4782 12.9469 13.5634C12.9113 13.6485 12.8586 13.7261 12.792 13.7915C12.7254 13.857 12.6462 13.9091 12.5588 13.9448C12.4714 13.9806 12.3777 13.9994 12.2828 14H0.717166C0.527087 14 0.344782 13.9269 0.210308 13.7967C0.0758343 13.6665 0.000191419 13.4898 0 13.3056V0.6944C0 0.3185 0.324277 0 0.723666 0H8.46202C8.59188 0 8.71664 0.0505234 8.80991 0.140879L12.8479 4.05265ZM11.5555 5.4C11.5555 5.12386 11.3317 4.9 11.0555 4.9H8.44443C8.16829 4.9 7.94443 4.67614 7.94443 4.4V1.9C7.94443 1.62386 7.72058 1.4 7.44443 1.4H1.94444C1.6683 1.4 1.44444 1.62386 1.44444 1.9V12.1C1.44444 12.3761 1.6683 12.6 1.94444 12.6H11.0555C11.3317 12.6 11.5555 12.3761 11.5555 12.1V5.4ZM3.61111 4C3.61111 3.72386 3.83496 3.5 4.11111 3.5H5.27777C5.55391 3.5 5.77777 3.72386 5.77777 4V4.4C5.77777 4.67614 5.55391 4.9 5.27777 4.9H4.11111C3.83496 4.9 3.61111 4.67614 3.61111 4.4V4ZM3.61111 6.8C3.61111 6.52386 3.83496 6.3 4.11111 6.3H8.88888C9.16502 6.3 9.38888 6.52386 9.38888 6.8V7.2C9.38888 7.47614 9.16502 7.7 8.88888 7.7H4.11111C3.83496 7.7 3.61111 7.47614 3.61111 7.2V6.8ZM3.61111 9.6C3.61111 9.32386 3.83496 9.1 4.11111 9.1H8.88888C9.16502 9.1 9.38888 9.32386 9.38888 9.6V10C9.38888 10.2761 9.16502 10.5 8.88888 10.5H4.11111C3.83496 10.5 3.61111 10.2761 3.61111 10V9.6Z" fill="#2D2F31"/>
</svg>
