<svg width="21" height="23" viewBox="0 0 21 23" fill="none" xmlns="http://www.w3.org/2000/svg">
<path d="M3.5 10.0625C2.77375 10.0625 2.1875 10.7046 2.1875 11.5C2.1875 12.2954 2.77375 12.9375 3.5 12.9375C4.22625 12.9375 4.8125 12.2954 4.8125 11.5C4.8125 10.7046 4.22625 10.0625 3.5 10.0625ZM3.5 4.3125C2.77375 4.3125 2.1875 4.95458 2.1875 5.75C2.1875 6.54542 2.77375 7.1875 3.5 7.1875C4.22625 7.1875 4.8125 6.54542 4.8125 5.75C4.8125 4.95458 4.22625 4.3125 3.5 4.3125ZM3.5 15.8125C2.77375 15.8125 2.1875 16.4642 2.1875 17.25C2.1875 18.0358 2.7825 18.6875 3.5 18.6875C4.2175 18.6875 4.8125 18.0358 4.8125 17.25C4.8125 16.4642 4.22625 15.8125 3.5 15.8125ZM6.125 18.2083H18.375V16.2917H6.125V18.2083ZM6.125 12.4583H18.375V10.5417H6.125V12.4583ZM6.125 4.79167V6.70833H18.375V4.79167H6.125Z" fill="#2D2F31"/>
</svg>
