<svg width="35" height="35" viewBox="0 0 35 35" fill="none" xmlns="http://www.w3.org/2000/svg">
<circle cx="17.5" cy="17.5" r="17.5" fill="#2D2F31"/>
<circle cx="17.5" cy="17.5" r="17.5" fill="#2D2F31"/>
<path d="M11.2929 11.2929C11.6834 10.9024 12.3166 10.9024 12.7071 11.2929L18 16.5858L23.2929 11.2929C23.6834 10.9024 24.3166 10.9024 24.7071 11.2929C25.0976 11.6834 25.0976 12.3166 24.7071 12.7071L19.4142 18L24.7071 23.2929C25.0976 23.6834 25.0976 24.3166 24.7071 24.7071C24.3166 25.0976 23.6834 25.0976 23.2929 24.7071L18 19.4142L12.7071 24.7071C12.3166 25.0976 11.6834 25.0976 11.2929 24.7071C10.9024 24.3166 10.9024 23.6834 11.2929 23.2929L16.5858 18L11.2929 12.7071C10.9024 12.3166 10.9024 11.6834 11.2929 11.2929Z" fill="#FCBCA0"/>
</svg>
